<?xml version="1.0" ?><svg data-name="Layer 5" id="Layer_5" viewBox="0 0 32 32" xmlns="http://www.w3.org/2000/svg"><defs><style>.cls-1{fill:#ffbbbc;}.cls-2{fill:#361041;}</style></defs><polygon class="cls-1" points="14 13.56 8.47 9.75 7.72 5.69 10.86 4.3 12.81 5.06 15.67 3.19 18.41 4.48 17.7 8 14 13.56"/><path class="cls-1" d="M14.52,15.19,9.7,19.64,8.4,24.57l2.38,2.68,3.54-2.16,4.57,2.16L22,25.65s-.36-4.2-.52-4.43S14.52,15.19,14.52,15.19Z"/><path class="cls-2" d="M26.47,15.18c.24-.27.82-.65,1-1s.23,0,0-.42a2.63,2.63,0,0,0-.63-.57C26.44,13,25.44,12,25.09,12s-.94.72-1.26,1a17,17,0,0,0-2.37,2.58A12.89,12.89,0,0,0,17,13.42a18.12,18.12,0,0,0,2-3.64,8.6,8.6,0,0,0,1-5.36,3.56,3.56,0,0,0-3.5-3,5.34,5.34,0,0,0-3.89,2.3A3.48,3.48,0,0,0,8.52,2.6a4.18,4.18,0,0,0-3,3.82c-.18,3.94,3.2,6.14,6.28,7.77a12.68,12.68,0,0,0-5.33,5,7.92,7.92,0,0,0-.82,6.45,5.6,5.6,0,0,0,4.74,4,5.34,5.34,0,0,0,4.5-2.33,4.9,4.9,0,0,0,6.22,2.29,4.63,4.63,0,0,0,2.75-6.43,4.9,4.9,0,0,0,.77.81A12.22,12.22,0,0,0,26.43,26c.41.26.24.32.64-.13s.68-.8,1-1.21.77-.76.86-1.11-.13-.5-.38-.75a61.19,61.19,0,0,0-4.77-4.48c.39-.44.75-.9,1.13-1.35C25.42,16.36,25.94,15.76,26.47,15.18Zm-15.13-5c-.94-.85-2.88-2.32-1.91-3.79,1.08-1.66,3.24.15,4,1.21.27-1.09.63-2.44,1.75-2.94A1.26,1.26,0,0,1,17,5.7c.27,2.47-2,4.52-3.2,6.42C13.07,11.37,12.11,10.84,11.34,10.13Zm9.38,14a2.18,2.18,0,0,1-2.66,1.5c-1.51-.35-2.75-1.79-3.62-3a6,6,0,0,1-2.84,2.51c-1.24.41-2-.52-1.9-1.58.12-2.28,2.05-4.48,3.64-5.93a6.39,6.39,0,0,1,1.17-.9c.39-.22.33-.3.74,0,.71.54,1.46,1.05,2.14,1.63C18.91,19.64,21.13,21.85,20.72,24.09Z"/></svg>